<mxfile host="app.diagrams.net" agent="Mozilla/5.0 (Windows NT 10.0; Win64; x64; rv:141.0) Gecko/20100101 Firefox/141.0" version="28.0.7">
  <diagram name="Page-1" id="lxi0TGwfGrm7se2ZcyxW">
    <mxGraphModel grid="1" page="1" gridSize="10" guides="1" tooltips="1" connect="1" arrows="1" fold="1" pageScale="1" pageWidth="850" pageHeight="1100" math="0" shadow="0">
      <root>
        <mxCell id="0" />
        <mxCell id="1" parent="0" />
        <mxCell id="ogNSdSzAt50LuhH0JYvq-3" style="edgeStyle=orthogonalEdgeStyle;rounded=0;orthogonalLoop=1;jettySize=auto;html=1;entryX=0.5;entryY=0;entryDx=0;entryDy=0;" edge="1" parent="1" source="ogNSdSzAt50LuhH0JYvq-1" target="ogNSdSzAt50LuhH0JYvq-4">
          <mxGeometry relative="1" as="geometry">
            <mxPoint x="420" y="100" as="targetPoint" />
          </mxGeometry>
        </mxCell>
        <mxCell id="ogNSdSzAt50LuhH0JYvq-1" value="Start" style="ellipse;whiteSpace=wrap;html=1;" vertex="1" parent="1">
          <mxGeometry x="359.97" y="20" width="120" height="50" as="geometry" />
        </mxCell>
        <mxCell id="ogNSdSzAt50LuhH0JYvq-8" style="edgeStyle=orthogonalEdgeStyle;rounded=0;orthogonalLoop=1;jettySize=auto;html=1;entryX=0.5;entryY=0;entryDx=0;entryDy=0;" edge="1" parent="1" source="ogNSdSzAt50LuhH0JYvq-60" target="ogNSdSzAt50LuhH0JYvq-7">
          <mxGeometry relative="1" as="geometry" />
        </mxCell>
        <mxCell id="ogNSdSzAt50LuhH0JYvq-4" value="input N" style="shape=parallelogram;perimeter=parallelogramPerimeter;whiteSpace=wrap;html=1;fixedSize=1;" vertex="1" parent="1">
          <mxGeometry x="347.5" y="90" width="145" height="30" as="geometry" />
        </mxCell>
        <mxCell id="ogNSdSzAt50LuhH0JYvq-10" style="edgeStyle=orthogonalEdgeStyle;rounded=0;orthogonalLoop=1;jettySize=auto;html=1;entryX=0.5;entryY=0;entryDx=0;entryDy=0;" edge="1" parent="1" source="ogNSdSzAt50LuhH0JYvq-7" target="ogNSdSzAt50LuhH0JYvq-15">
          <mxGeometry relative="1" as="geometry">
            <mxPoint x="545" y="280" as="targetPoint" />
            <Array as="points">
              <mxPoint x="545" y="240" />
              <mxPoint x="545" y="285" />
            </Array>
          </mxGeometry>
        </mxCell>
        <mxCell id="ogNSdSzAt50LuhH0JYvq-47" style="edgeStyle=orthogonalEdgeStyle;rounded=0;orthogonalLoop=1;jettySize=auto;html=1;" edge="1" parent="1" source="ogNSdSzAt50LuhH0JYvq-7" target="ogNSdSzAt50LuhH0JYvq-28">
          <mxGeometry relative="1" as="geometry" />
        </mxCell>
        <mxCell id="ogNSdSzAt50LuhH0JYvq-7" value="N is even number?" style="rhombus;whiteSpace=wrap;html=1;" vertex="1" parent="1">
          <mxGeometry x="385" y="220" width="70" height="40" as="geometry" />
        </mxCell>
        <mxCell id="ogNSdSzAt50LuhH0JYvq-11" value="Yes" style="text;html=1;align=center;verticalAlign=middle;whiteSpace=wrap;rounded=0;" vertex="1" parent="1">
          <mxGeometry x="479.97" y="220" width="40" height="20" as="geometry" />
        </mxCell>
        <mxCell id="ogNSdSzAt50LuhH0JYvq-14" value="No" style="text;html=1;align=center;verticalAlign=middle;whiteSpace=wrap;rounded=0;" vertex="1" parent="1">
          <mxGeometry x="330" y="220" width="40" height="20" as="geometry" />
        </mxCell>
        <mxCell id="ogNSdSzAt50LuhH0JYvq-18" style="edgeStyle=orthogonalEdgeStyle;rounded=0;orthogonalLoop=1;jettySize=auto;html=1;entryX=0.5;entryY=0;entryDx=0;entryDy=0;" edge="1" parent="1" source="ogNSdSzAt50LuhH0JYvq-15" target="ogNSdSzAt50LuhH0JYvq-17">
          <mxGeometry relative="1" as="geometry" />
        </mxCell>
        <mxCell id="ogNSdSzAt50LuhH0JYvq-15" value="i &amp;lt;- N" style="rounded=0;whiteSpace=wrap;html=1;" vertex="1" parent="1">
          <mxGeometry x="505.5" y="300" width="80" height="30" as="geometry" />
        </mxCell>
        <mxCell id="ogNSdSzAt50LuhH0JYvq-20" style="edgeStyle=orthogonalEdgeStyle;rounded=0;orthogonalLoop=1;jettySize=auto;html=1;entryX=0.5;entryY=0;entryDx=0;entryDy=0;" edge="1" parent="1" source="ogNSdSzAt50LuhH0JYvq-17" target="ogNSdSzAt50LuhH0JYvq-19">
          <mxGeometry relative="1" as="geometry" />
        </mxCell>
        <mxCell id="ogNSdSzAt50LuhH0JYvq-17" value="" style="ellipse;whiteSpace=wrap;html=1;aspect=fixed;" vertex="1" parent="1">
          <mxGeometry x="540.5" y="350" width="10" height="10" as="geometry" />
        </mxCell>
        <mxCell id="ogNSdSzAt50LuhH0JYvq-23" style="edgeStyle=orthogonalEdgeStyle;rounded=0;orthogonalLoop=1;jettySize=auto;html=1;entryX=0.5;entryY=0;entryDx=0;entryDy=0;" edge="1" parent="1" source="ogNSdSzAt50LuhH0JYvq-19" target="ogNSdSzAt50LuhH0JYvq-22">
          <mxGeometry relative="1" as="geometry" />
        </mxCell>
        <mxCell id="tL-VpAUaVOL3l6DwRDpn-2" style="edgeStyle=orthogonalEdgeStyle;rounded=0;orthogonalLoop=1;jettySize=auto;html=1;entryX=1;entryY=0.5;entryDx=0;entryDy=0;" edge="1" parent="1" source="ogNSdSzAt50LuhH0JYvq-19" target="tL-VpAUaVOL3l6DwRDpn-1">
          <mxGeometry relative="1" as="geometry" />
        </mxCell>
        <mxCell id="ogNSdSzAt50LuhH0JYvq-19" value="i &amp;gt;= 0" style="rhombus;whiteSpace=wrap;html=1;" vertex="1" parent="1">
          <mxGeometry x="505.5" y="380" width="80" height="30" as="geometry" />
        </mxCell>
        <mxCell id="ogNSdSzAt50LuhH0JYvq-25" style="edgeStyle=orthogonalEdgeStyle;rounded=0;orthogonalLoop=1;jettySize=auto;html=1;entryX=0.5;entryY=0;entryDx=0;entryDy=0;" edge="1" parent="1" source="ogNSdSzAt50LuhH0JYvq-22" target="ogNSdSzAt50LuhH0JYvq-24">
          <mxGeometry relative="1" as="geometry" />
        </mxCell>
        <mxCell id="ogNSdSzAt50LuhH0JYvq-22" value="print N" style="shape=parallelogram;perimeter=parallelogramPerimeter;whiteSpace=wrap;html=1;fixedSize=1;" vertex="1" parent="1">
          <mxGeometry x="490.5" y="430" width="110" height="30" as="geometry" />
        </mxCell>
        <mxCell id="ogNSdSzAt50LuhH0JYvq-26" style="edgeStyle=orthogonalEdgeStyle;rounded=0;orthogonalLoop=1;jettySize=auto;html=1;entryX=1;entryY=0.5;entryDx=0;entryDy=0;" edge="1" parent="1" source="ogNSdSzAt50LuhH0JYvq-24" target="ogNSdSzAt50LuhH0JYvq-17">
          <mxGeometry relative="1" as="geometry">
            <Array as="points">
              <mxPoint x="665.5" y="505" />
              <mxPoint x="665.5" y="355" />
            </Array>
          </mxGeometry>
        </mxCell>
        <mxCell id="ogNSdSzAt50LuhH0JYvq-24" value="i &amp;lt;- i - 2" style="rounded=0;whiteSpace=wrap;html=1;" vertex="1" parent="1">
          <mxGeometry x="488" y="490" width="115" height="30" as="geometry" />
        </mxCell>
        <mxCell id="ogNSdSzAt50LuhH0JYvq-27" style="edgeStyle=orthogonalEdgeStyle;rounded=0;orthogonalLoop=1;jettySize=auto;html=1;entryX=0.5;entryY=0;entryDx=0;entryDy=0;" edge="1" parent="1" source="ogNSdSzAt50LuhH0JYvq-28" target="ogNSdSzAt50LuhH0JYvq-30">
          <mxGeometry relative="1" as="geometry" />
        </mxCell>
        <mxCell id="ogNSdSzAt50LuhH0JYvq-28" value="i &amp;lt;- 1" style="rounded=0;whiteSpace=wrap;html=1;" vertex="1" parent="1">
          <mxGeometry x="269.98" y="290" width="80" height="30" as="geometry" />
        </mxCell>
        <mxCell id="ogNSdSzAt50LuhH0JYvq-29" style="edgeStyle=orthogonalEdgeStyle;rounded=0;orthogonalLoop=1;jettySize=auto;html=1;entryX=0.5;entryY=0;entryDx=0;entryDy=0;" edge="1" parent="1" source="ogNSdSzAt50LuhH0JYvq-30" target="ogNSdSzAt50LuhH0JYvq-32">
          <mxGeometry relative="1" as="geometry" />
        </mxCell>
        <mxCell id="ogNSdSzAt50LuhH0JYvq-30" value="" style="ellipse;whiteSpace=wrap;html=1;aspect=fixed;" vertex="1" parent="1">
          <mxGeometry x="304.98" y="350" width="10" height="10" as="geometry" />
        </mxCell>
        <mxCell id="ogNSdSzAt50LuhH0JYvq-31" style="edgeStyle=orthogonalEdgeStyle;rounded=0;orthogonalLoop=1;jettySize=auto;html=1;entryX=0.5;entryY=0;entryDx=0;entryDy=0;" edge="1" parent="1" source="ogNSdSzAt50LuhH0JYvq-32" target="ogNSdSzAt50LuhH0JYvq-34">
          <mxGeometry relative="1" as="geometry" />
        </mxCell>
        <mxCell id="ogNSdSzAt50LuhH0JYvq-52" style="edgeStyle=orthogonalEdgeStyle;rounded=0;orthogonalLoop=1;jettySize=auto;html=1;entryX=0;entryY=0.5;entryDx=0;entryDy=0;" edge="1" parent="1" source="ogNSdSzAt50LuhH0JYvq-32" target="tL-VpAUaVOL3l6DwRDpn-1">
          <mxGeometry relative="1" as="geometry">
            <Array as="points">
              <mxPoint x="230" y="395" />
              <mxPoint x="230" y="625" />
            </Array>
            <mxPoint x="414.9799999999999" y="575" as="targetPoint" />
          </mxGeometry>
        </mxCell>
        <mxCell id="ogNSdSzAt50LuhH0JYvq-32" value="i &amp;lt;= 1" style="rhombus;whiteSpace=wrap;html=1;" vertex="1" parent="1">
          <mxGeometry x="269.98" y="380" width="80" height="30" as="geometry" />
        </mxCell>
        <mxCell id="ogNSdSzAt50LuhH0JYvq-33" style="edgeStyle=orthogonalEdgeStyle;rounded=0;orthogonalLoop=1;jettySize=auto;html=1;entryX=0.5;entryY=0;entryDx=0;entryDy=0;" edge="1" parent="1" source="ogNSdSzAt50LuhH0JYvq-34" target="ogNSdSzAt50LuhH0JYvq-36">
          <mxGeometry relative="1" as="geometry" />
        </mxCell>
        <mxCell id="ogNSdSzAt50LuhH0JYvq-34" value="print N" style="shape=parallelogram;perimeter=parallelogramPerimeter;whiteSpace=wrap;html=1;fixedSize=1;" vertex="1" parent="1">
          <mxGeometry x="254.98000000000002" y="430" width="110" height="30" as="geometry" />
        </mxCell>
        <mxCell id="ogNSdSzAt50LuhH0JYvq-35" style="edgeStyle=orthogonalEdgeStyle;rounded=0;orthogonalLoop=1;jettySize=auto;html=1;entryX=1;entryY=0.5;entryDx=0;entryDy=0;" edge="1" parent="1" source="ogNSdSzAt50LuhH0JYvq-36" target="ogNSdSzAt50LuhH0JYvq-30">
          <mxGeometry relative="1" as="geometry">
            <Array as="points">
              <mxPoint x="429.98" y="505" />
              <mxPoint x="429.98" y="355" />
            </Array>
          </mxGeometry>
        </mxCell>
        <mxCell id="ogNSdSzAt50LuhH0JYvq-36" value="i &amp;lt;- i + 2" style="rounded=0;whiteSpace=wrap;html=1;" vertex="1" parent="1">
          <mxGeometry x="252.48000000000002" y="490" width="115" height="30" as="geometry" />
        </mxCell>
        <mxCell id="ogNSdSzAt50LuhH0JYvq-38" value="End" style="ellipse;whiteSpace=wrap;html=1;" vertex="1" parent="1">
          <mxGeometry x="364.98" y="660" width="120" height="50" as="geometry" />
        </mxCell>
        <mxCell id="ogNSdSzAt50LuhH0JYvq-55" value="Yes" style="text;html=1;align=center;verticalAlign=middle;whiteSpace=wrap;rounded=0;" vertex="1" parent="1">
          <mxGeometry x="540.5" y="408" width="40" height="20" as="geometry" />
        </mxCell>
        <mxCell id="ogNSdSzAt50LuhH0JYvq-56" value="Yes" style="text;html=1;align=center;verticalAlign=middle;whiteSpace=wrap;rounded=0;" vertex="1" parent="1">
          <mxGeometry x="309.98" y="408" width="40" height="20" as="geometry" />
        </mxCell>
        <mxCell id="ogNSdSzAt50LuhH0JYvq-57" value="No" style="text;html=1;align=center;verticalAlign=middle;whiteSpace=wrap;rounded=0;" vertex="1" parent="1">
          <mxGeometry x="229.98000000000002" y="375" width="40" height="20" as="geometry" />
        </mxCell>
        <mxCell id="ogNSdSzAt50LuhH0JYvq-59" value="No" style="text;html=1;align=center;verticalAlign=middle;whiteSpace=wrap;rounded=0;" vertex="1" parent="1">
          <mxGeometry x="465.5" y="375" width="40" height="20" as="geometry" />
        </mxCell>
        <mxCell id="ogNSdSzAt50LuhH0JYvq-61" value="" style="edgeStyle=orthogonalEdgeStyle;rounded=0;orthogonalLoop=1;jettySize=auto;html=1;entryX=0.5;entryY=0;entryDx=0;entryDy=0;" edge="1" parent="1" source="ogNSdSzAt50LuhH0JYvq-4" target="ogNSdSzAt50LuhH0JYvq-60">
          <mxGeometry relative="1" as="geometry">
            <mxPoint x="420" y="150" as="sourcePoint" />
            <mxPoint x="420" y="220" as="targetPoint" />
          </mxGeometry>
        </mxCell>
        <mxCell id="ogNSdSzAt50LuhH0JYvq-60" value="read N" style="shape=parallelogram;perimeter=parallelogramPerimeter;whiteSpace=wrap;html=1;fixedSize=1;" vertex="1" parent="1">
          <mxGeometry x="347.5" y="150" width="145" height="30" as="geometry" />
        </mxCell>
        <mxCell id="tL-VpAUaVOL3l6DwRDpn-3" style="edgeStyle=orthogonalEdgeStyle;rounded=0;orthogonalLoop=1;jettySize=auto;html=1;entryX=0.5;entryY=0;entryDx=0;entryDy=0;" edge="1" parent="1" source="tL-VpAUaVOL3l6DwRDpn-1" target="ogNSdSzAt50LuhH0JYvq-38">
          <mxGeometry relative="1" as="geometry" />
        </mxCell>
        <mxCell id="tL-VpAUaVOL3l6DwRDpn-1" value="" style="ellipse;whiteSpace=wrap;html=1;aspect=fixed;" vertex="1" parent="1">
          <mxGeometry x="420" y="620" width="10" height="10" as="geometry" />
        </mxCell>
      </root>
    </mxGraphModel>
  </diagram>
</mxfile>
